<svg width="25" height="25" viewBox="0 0 25 25" fill="none" xmlns="http://www.w3.org/2000/svg">
<g id="Arrow / Arrows_Reload_01">
<path id="Vector" d="M10.9404 16.595H5.94043V21.595M14.9404 8.59503H19.9404V3.59503M5.52344 9.59844C6.08412 8.21069 7.02287 7.00807 8.23298 6.12726C9.44309 5.24645 10.8773 4.72255 12.3702 4.61554C13.8631 4.50853 15.3552 4.82243 16.6785 5.52164C18.0019 6.22085 19.1017 7.27757 19.8545 8.57115M20.358 15.5921C19.7973 16.9798 18.8585 18.1825 17.6484 19.0633C16.4383 19.9441 15.0056 20.4673 13.5127 20.5743C12.0198 20.6813 10.5265 20.3675 9.20312 19.6683C7.87976 18.9691 6.77925 17.9125 6.02637 16.619" stroke="white" stroke-width="2" stroke-linecap="round" stroke-linejoin="round"/>
</g>
</svg>
