<svg width="25" height="25" viewBox="0 0 25 25" fill="none" xmlns="http://www.w3.org/2000/svg">
<path d="M14.9414 10.595V17.595M10.9414 10.595V17.595M6.94141 6.59503V18.395C6.94141 19.5151 6.94141 20.0748 7.15939 20.5026C7.35114 20.8789 7.65688 21.1855 8.0332 21.3773C8.46061 21.595 9.0204 21.595 10.1383 21.595H15.7445C16.8624 21.595 17.4214 21.595 17.8488 21.3773C18.2251 21.1855 18.5319 20.8789 18.7236 20.5026C18.9414 20.0752 18.9414 19.516 18.9414 18.3981V6.59503M6.94141 6.59503H8.94141M6.94141 6.59503H4.94141M8.94141 6.59503H16.9414M8.94141 6.59503C8.94141 5.66315 8.94141 5.19744 9.09365 4.8299C9.29663 4.33984 9.68573 3.95026 10.1758 3.74727C10.5433 3.59503 11.0095 3.59503 11.9414 3.59503H13.9414C14.8733 3.59503 15.3392 3.59503 15.7068 3.74727C16.1968 3.95026 16.5861 4.33984 16.7891 4.8299C16.9413 5.19744 16.9414 5.66315 16.9414 6.59503M16.9414 6.59503H18.9414M18.9414 6.59503H20.9414" stroke="white" stroke-width="2" stroke-linecap="round" stroke-linejoin="round"/>
</svg>
