<svg width="34" height="34" viewBox="0 0 34 34" fill="none" xmlns="http://www.w3.org/2000/svg">
<path d="M17.0007 2.83334C24.8207 2.83334 31.1673 9.18001 31.1673 17C31.1673 24.82 24.8207 31.1667 17.0007 31.1667C9.18065 31.1667 2.83398 24.82 2.83398 17C2.83398 9.18001 9.18065 2.83334 17.0007 2.83334ZM17.0007 28.3333C23.2623 28.3333 28.334 23.2617 28.334 17C28.334 10.7383 23.2623 5.66668 17.0007 5.66668C10.739 5.66668 5.66732 10.7383 5.66732 17C5.66732 23.2617 10.739 28.3333 17.0007 28.3333ZM22.0093 9.98786L24.0127 11.9913L17.0007 19.0035L14.9972 17L22.0093 9.98786Z" fill="white"/>
</svg>
