<svg width="34" height="34" viewBox="0 0 34 34" fill="none" xmlns="http://www.w3.org/2000/svg">
<path d="M12.75 8.49999H21.25C21.25 6.15279 19.3473 4.24999 17 4.24999C14.6527 4.24999 12.75 6.15279 12.75 8.49999ZM9.91667 8.49999C9.91667 4.58798 13.088 1.41666 17 1.41666C20.912 1.41666 24.0833 4.58798 24.0833 8.49999H28.3333C29.1158 8.49999 29.75 9.13426 29.75 9.91666V29.75C29.75 30.5324 29.1158 31.1667 28.3333 31.1667H5.66667C4.88427 31.1667 4.25 30.5324 4.25 29.75V9.91666C4.25 9.13426 4.88427 8.49999 5.66667 8.49999H9.91667ZM7.08333 11.3333V28.3333H26.9167V11.3333H7.08333ZM12.75 14.1667C12.75 16.5139 14.6527 18.4167 17 18.4167C19.3473 18.4167 21.25 16.5139 21.25 14.1667H24.0833C24.0833 18.0786 20.912 21.25 17 21.25C13.088 21.25 9.91667 18.0786 9.91667 14.1667H12.75Z" fill="white"/>
</svg>
