<svg width="34" height="34" viewBox="0 0 34 34" fill="none" xmlns="http://www.w3.org/2000/svg">
<path d="M7.08301 14.0574C7.08301 20.9308 13.096 26.6148 15.7575 28.7941C16.1384 29.1059 16.3312 29.2637 16.6153 29.3437C16.8366 29.406 17.1623 29.406 17.3836 29.3437C17.6683 29.2636 17.8597 29.1073 18.242 28.7943C20.9035 26.615 26.9162 20.9314 26.9162 14.058C26.9162 11.4568 25.8715 8.96191 24.0118 7.12261C22.152 5.28331 19.6299 4.25 16.9998 4.25C14.3697 4.25 11.8473 5.28346 9.98753 7.12276C8.1278 8.96206 7.08301 11.4562 7.08301 14.0574Z" stroke="white" stroke-width="2.5" stroke-linecap="round" stroke-linejoin="round"/>
<path d="M14.1663 12.75C14.1663 14.3148 15.4349 15.5833 16.9997 15.5833C18.5645 15.5833 19.833 14.3148 19.833 12.75C19.833 11.1852 18.5645 9.91667 16.9997 9.91667C15.4349 9.91667 14.1663 11.1852 14.1663 12.75Z" stroke="white" stroke-width="2.5" stroke-linecap="round" stroke-linejoin="round"/>
</svg>
