<svg width="34" height="34" viewBox="0 0 34 34" fill="none" xmlns="http://www.w3.org/2000/svg">
<path d="M29.75 28.3333C29.75 25.866 27.3847 23.767 24.0833 22.9891M21.25 28.3334C21.25 25.2038 17.4444 22.6667 12.75 22.6667C8.05558 22.6667 4.25 25.2038 4.25 28.3334M21.25 18.4167C24.3796 18.4167 26.9167 15.8797 26.9167 12.75C26.9167 9.62043 24.3796 7.08337 21.25 7.08337M12.75 18.4167C9.62039 18.4167 7.08333 15.8797 7.08333 12.75C7.08333 9.62043 9.62039 7.08337 12.75 7.08337C15.8796 7.08337 18.4167 9.62043 18.4167 12.75C18.4167 15.8797 15.8796 18.4167 12.75 18.4167Z" stroke="white" stroke-width="2.5" stroke-linecap="round" stroke-linejoin="round"/>
</svg>
