<svg width="34" height="34" viewBox="0 0 34 34" fill="none" xmlns="http://www.w3.org/2000/svg">
<path d="M4.25 15.5834H5.7311M5.7311 15.5834H28.2689M5.7311 15.5834C5.74687 15.5105 5.76551 15.4382 5.78703 15.3668C5.83839 15.1964 5.91094 15.0325 6.0568 14.7043L8.24734 9.77559C8.68044 8.80113 8.89734 8.31361 9.23964 7.95634C9.54221 7.64054 9.91332 7.3993 10.3248 7.25107C10.7903 7.08337 11.3239 7.08337 12.3903 7.08337H21.6092C22.6756 7.08337 23.2097 7.08337 23.6752 7.25107C24.0867 7.3993 24.4573 7.64054 24.7598 7.95634C25.1019 8.31337 25.3184 8.80049 25.7509 9.77363L27.9503 14.7222C28.0909 15.0385 28.1624 15.1995 28.2128 15.3668C28.2344 15.4382 28.2531 15.5105 28.2689 15.5834M5.7311 15.5834C5.71344 15.665 5.69939 15.7475 5.68894 15.8303C5.66667 16.0069 5.66667 16.1864 5.66667 16.5456V24.0834M28.2689 15.5834H29.75M28.2689 15.5834C28.2866 15.665 28.3007 15.7475 28.3112 15.8303C28.3333 16.0058 28.3333 16.1843 28.3333 16.5391V24.0835M28.3333 24.0835L22.6667 24.0835M28.3333 24.0835V25.4999C28.3333 27.0647 27.0648 28.3334 25.5 28.3334C23.9352 28.3334 22.6667 27.0648 22.6667 25.5V24.0835M22.6667 24.0835L11.3333 24.0834M11.3333 24.0834H5.66667M11.3333 24.0834V25.5C11.3333 27.0648 10.0648 28.3334 8.5 28.3334C6.93519 28.3334 5.66667 27.0648 5.66667 25.5V24.0834" stroke="white" stroke-width="2.5" stroke-linecap="round" stroke-linejoin="round"/>
</svg>
