<svg width="34" height="34" viewBox="0 0 34 34" fill="none" xmlns="http://www.w3.org/2000/svg">
<path d="M9.91638 8.49998V4.24998C9.91638 3.46758 10.5507 2.83331 11.3331 2.83331H28.333C29.1155 2.83331 29.7497 3.46758 29.7497 4.24998V24.0833C29.7497 24.8657 29.1155 25.5 28.333 25.5H24.083V29.7487C24.083 30.5318 23.4457 31.1666 22.6567 31.1666H5.6761C4.88834 31.1666 4.25 30.5368 4.25 29.7487L4.25368 9.91788C4.25382 9.1348 4.89124 8.49998 5.68001 8.49998H9.91638ZM7.08676 11.3333L7.0836 28.3333H21.2497V11.3333H7.08676ZM12.7497 8.49998H24.083V22.6666H26.9164V5.66665H12.7497V8.49998ZM9.91667 15.5833H18.4167V18.4166H9.91667V15.5833ZM9.91667 21.25H18.4167V24.0833H9.91667V21.25Z" fill="white"/>
</svg>
